# xmcd CD database file
#
# Track frame offsets:
#	150
#	22282
#	39174
#	65331
#	84128
#	106635
#	124572
#	143774
#	164006
#
# Disc length: 2487 seconds
#
# Revision: 0
# Processed by: cddbd v1.5.2PL0 Copyright (c) Steve Scherf et al.
# Submitted via: CDex 1.77
#
DISCID=6909b509
DTITLE=Pat Wilder - Eugene
DYEAR=2004
DGENRE=Blues
TTITLE0=So good to me
TTITLE1=It's a love thing
TTITLE2=Miss your groove
TTITLE3=Eugene
TTITLE4=Sweet love
TTITLE5=Heaven
TTITLE6=Take me for a ride
TTITLE7=Big foot woman
TTITLE8=I'm waiting on Jesus
EXTD=YEAR: 2004
EXTT0=
EXTT1=
EXTT2=
EXTT3=
EXTT4=
EXTT5=
EXTT6=
EXTT7=
EXTT8=
PLAYORDER=
